# Blender v2.78 (sub 0) OBJ File: 'grass.blend'
# www.blender.org
g grass.001_Cube.001
v -0.134190 0.000000 -0.000000
v -0.129097 1.661851 -1.045733
v 0.134190 0.000000 -0.000000
v 0.129097 1.661851 -1.045733
v -0.167167 0.479120 -0.142982
v -0.187677 0.921408 -0.374447
v -0.172857 1.308287 -0.692093
v 0.172857 1.308287 -0.692093
v 0.187677 0.921408 -0.374447
v 0.167167 0.479120 -0.142982
v 0.000000 0.000000 -0.048985
v 0.000000 1.888243 -1.421144
v 0.000000 0.000000 0.048985
v 0.000000 0.493128 -0.096042
v 0.000000 0.944098 -0.331034
v 0.000000 1.339297 -0.654173
v 0.000000 0.465112 -0.189921
v 0.000000 0.898718 -0.417860
v 0.000000 1.277277 -0.730013
v 0.000000 1.681198 -1.033094
v 0.000000 1.649196 -1.065070
v 0.172048 -0.066666 0.219445
v 1.119207 1.164901 -0.000658
v 0.194254 -0.066666 0.372954
v 1.152826 1.188408 0.293630
v 0.302017 0.412288 0.118870
v 0.559638 0.727461 0.050534
v 0.862494 0.913424 0.001919
v 0.917700 0.928313 0.392311
v 0.615941 0.732633 0.434648
v 0.347398 0.412288 0.432588
v 0.204761 -0.066666 0.293073
v 1.296015 1.514589 0.092740
v 0.161541 -0.066666 0.299325
v 0.290716 0.422509 0.280643
v 0.552507 0.739570 0.247548
v 0.852337 0.929631 0.201893
v 0.358960 0.401159 0.270815
v 0.630874 0.696629 0.237635
v 0.931721 0.886319 0.192338
v 1.128322 1.173008 0.148093
v 1.170827 1.161836 0.144027
v 0.041914 -0.041880 0.634474
v -0.437638 1.326982 1.274394
v -0.171661 -0.032336 0.458459
v -0.654936 1.322615 1.120333
v 0.080399 0.357105 0.660568
v 0.018602 0.756418 0.779918
v -0.181664 1.083073 1.010743
v -0.469421 1.082587 0.799965
v -0.288055 0.763206 0.543466
v -0.187650 0.367655 0.443662
v -0.087952 -0.024318 0.575163
v -0.734109 1.465592 1.458181
v -0.041795 -0.049898 0.517770
v -0.029752 0.362613 0.522490
v -0.114506 0.772900 0.635140
v -0.312432 1.106470 0.886213
v -0.075834 0.363442 0.579721
v -0.151912 0.751006 0.684154
v -0.336927 1.063411 0.921784
v -0.542950 1.340747 1.191872
v -0.552386 1.315408 1.206479
v -0.303828 0.006014 0.258568
v -0.828184 0.943483 -0.011725
v -0.214992 0.006014 0.083525
v -0.742720 0.943483 -0.180125
v -0.386669 0.276292 0.243574
v -0.509893 0.525791 0.197859
v -0.664775 0.744034 0.107099
v -0.550341 0.744034 -0.118383
v -0.385648 0.525791 -0.046955
v -0.276001 0.276292 0.025514
v -0.284051 0.006014 0.158541
v -0.974297 1.071194 -0.191766
v -0.234769 0.006014 0.183552
v -0.307723 0.284194 0.146528
v -0.425932 0.538591 0.086535
v -0.588483 0.761527 0.004039
v -0.354947 0.268390 0.122561
v -0.469609 0.512991 0.064369
v -0.626633 0.726541 -0.015323
v -0.779094 0.954397 -0.092698
v -0.795179 0.936345 -0.100861
v 0.235995 -0.013579 0.030694
v 0.595724 1.348311 -0.506860
v 0.471446 0.018800 0.183099
v 0.839285 1.339867 -0.386706
v 0.325119 0.306254 -0.209842
v 0.416943 0.669213 -0.399103
v 0.486801 0.983927 -0.458846
v 0.808921 0.973294 -0.290314
v 0.757340 0.664783 -0.198975
v 0.620540 0.328814 -0.020866
v 0.373442 -0.020596 0.081359
v 0.724599 1.563312 -0.423088
v 0.333999 0.025818 0.132434
v 0.452992 0.344629 -0.087261
v 0.565759 0.679114 -0.261973
v 0.630577 0.979710 -0.341309
v 0.493069 0.289118 -0.144124
v 0.608955 0.654237 -0.337030
v 0.669694 0.975586 -0.416379
v 0.710362 1.345246 -0.431438
v 0.723052 1.347579 -0.457481
vt 0.1828 0.4723
vt 0.1828 0.6271
vt 0.1828 0.7592
vt 0.1426 0.6252
vt 0.1275 0.4720
vt 0.0558 0.4782
vt 0.0507 0.6352
vt 0.0463 0.7724
vt 0.0097 0.6336
vt 0.0003 0.4776
vt 0.0713 0.0003
vt 0.0660 0.1637
vt 0.0106 0.1637
vt 0.0250 0.0034
vt 0.0609 0.3215
vt 0.0003 0.3214
vt 0.1828 0.0049
vt 0.1828 0.1605
vt 0.1272 0.1592
vt 0.1376 0.0003
vt 0.1828 0.3180
vt 0.1219 0.3168
vt 0.2437 0.3168
vt 0.2381 0.4720
vt 0.2384 0.1592
vt 0.2280 0.0003
vt 0.1214 0.3254
vt 0.1113 0.4811
vt 0.1212 0.1673
vt 0.1173 0.0064
vt 0.0917 0.6362
vt 0.2230 0.6252
vt 0.3093 0.4036
vt 0.3130 0.5138
vt 0.3196 0.6299
vt 0.2655 0.5138
vt 0.2468 0.4021
vt 0.4358 0.3955
vt 0.4307 0.5134
vt 0.4230 0.6350
vt 0.3834 0.5141
vt 0.3727 0.4013
vt 0.4387 0.0003
vt 0.4374 0.1581
vt 0.3867 0.1600
vt 0.4128 0.0019
vt 0.4377 0.2838
vt 0.3768 0.2889
vt 0.3094 0.0025
vt 0.3092 0.1601
vt 0.2577 0.1574
vt 0.2846 0.0003
vt 0.3084 0.2914
vt 0.2442 0.2891
vt 0.3722 0.2875
vt 0.3715 0.3992
vt 0.3615 0.1575
vt 0.3343 0.0003
vt 0.4985 0.2914
vt 0.4985 0.4049
vt 0.4880 0.1609
vt 0.4646 0.0024
vt 0.4774 0.5178
vt 0.3605 0.5104
vt 0.6771 0.3980
vt 0.6722 0.5336
vt 0.6700 0.6393
vt 0.6312 0.5313
vt 0.6211 0.3961
vt 0.5561 0.4045
vt 0.5502 0.5439
vt 0.5438 0.6547
vt 0.5076 0.5410
vt 0.4991 0.4022
vt 0.5720 0.0003
vt 0.5650 0.1309
vt 0.5091 0.1302
vt 0.5251 0.0018
vt 0.5597 0.2635
vt 0.4990 0.2625
vt 0.6902 0.0050
vt 0.6877 0.1281
vt 0.6323 0.1244
vt 0.6461 0.0003
vt 0.6835 0.2600
vt 0.6211 0.2563
vt 0.7452 0.2600
vt 0.7329 0.3989
vt 0.7438 0.1274
vt 0.7352 0.0016
vt 0.6206 0.2687
vt 0.6120 0.4082
vt 0.6206 0.1363
vt 0.6184 0.0073
vt 0.5926 0.5459
vt 0.7132 0.5330
vt 0.9183 0.8177
vt 0.9183 0.9064
vt 0.9183 0.9820
vt 0.8886 0.9053
vt 0.8779 0.8176
vt 0.7858 0.8184
vt 0.7822 0.9072
vt 0.7790 0.9846
vt 0.7524 0.9058
vt 0.7457 0.8174
vt 0.7969 0.5488
vt 0.7931 0.6407
vt 0.7534 0.6401
vt 0.7640 0.5501
vt 0.7895 0.7297
vt 0.7457 0.7290
vt 0.9183 0.5561
vt 0.9183 0.6418
vt 0.8791 0.6407
vt 0.8871 0.5535
vt 0.9183 0.7299
vt 0.8740 0.7290
vt 0.9627 0.7290
vt 0.9588 0.8176
vt 0.9576 0.6407
vt 0.9496 0.5535
vt 0.8331 0.7326
vt 0.8259 0.8207
vt 0.8327 0.6434
vt 0.8295 0.5528
vt 0.8120 0.9083
vt 0.9480 0.9053
vt 0.9332 0.3649
vt 0.9264 0.4835
vt 0.9226 0.5529
vt 0.8830 0.4819
vt 0.8740 0.3611
vt 0.8072 0.3574
vt 0.8053 0.4792
vt 0.8038 0.5483
vt 0.7621 0.4766
vt 0.7491 0.3572
vt 0.8289 0.0063
vt 0.8162 0.1315
vt 0.7603 0.1245
vt 0.7843 0.0003
vt 0.8099 0.2566
vt 0.7457 0.2548
vt 0.9338 0.0039
vt 0.9380 0.1292
vt 0.8812 0.1320
vt 0.8874 0.0063
vt 0.9367 0.2611
vt 0.8740 0.2583
vt 0.9997 0.2594
vt 0.9925 0.3627
vt 0.9944 0.1284
vt 0.9800 0.0003
vt 0.8735 0.2626
vt 0.8649 0.3643
vt 0.8722 0.1364
vt 0.8735 0.0130
vt 0.8484 0.4823
vt 0.9699 0.4828
vn 0.2140 -0.7080 -0.6730
vn -0.2167 0.7596 0.6132
vn -0.3038 0.2611 0.9163
vn -0.2640 0.4417 0.8574
vn -0.2596 0.6150 0.7446
vn 0.3028 -0.2841 -0.9097
vn 0.2637 -0.4529 -0.8517
vn 0.2597 -0.6106 -0.7482
vn -0.2597 -0.6106 -0.7482
vn -0.2637 -0.4529 -0.8517
vn -0.3028 -0.2841 -0.9097
vn 0.2596 0.6150 0.7446
vn 0.2640 0.4417 0.8574
vn 0.3038 0.2611 0.9163
vn 0.2167 0.7596 0.6132
vn -0.2140 -0.7080 -0.6730
vn 0.8261 -0.5317 0.1866
vn -0.7595 0.6500 -0.0274
vn -0.9643 0.2461 -0.0974
vn -0.7764 0.6252 -0.0788
vn -0.5368 0.8396 -0.0833
vn 0.9451 -0.3108 0.1006
vn 0.7477 -0.6491 0.1405
vn 0.5484 -0.8121 0.1996
vn 0.4693 -0.8298 -0.3020
vn 0.6824 -0.6480 -0.3382
vn 0.8779 -0.3108 -0.3643
vn -0.5096 0.8386 0.1922
vn -0.7288 0.6205 0.2896
vn -0.8972 0.2461 0.3667
vn -0.7475 0.6501 0.1362
vn 0.7513 -0.5803 -0.3144
vn -0.4025 -0.8404 0.3629
vn 0.3965 0.8641 -0.3101
vn 0.7957 -0.0266 -0.6052
vn 0.7333 0.3066 -0.6068
vn 0.5715 0.6800 -0.4593
vn -0.7910 0.0041 0.6118
vn -0.7143 -0.3229 0.6209
vn -0.5460 -0.6892 0.4764
vn -0.3222 -0.6783 0.6603
vn -0.4518 -0.3164 0.8342
vn -0.4404 -0.0067 0.8978
vn 0.2893 0.6866 -0.6670
vn 0.4296 0.3212 -0.8439
vn 0.4322 -0.0091 -0.9017
vn 0.1524 0.8621 -0.4833
vn -0.2060 -0.8335 0.5127
vn -0.5304 -0.7147 -0.4560
vn 0.4758 0.7669 0.4307
vn 0.7247 0.2661 0.6356
vn 0.6822 0.4481 0.5778
vn 0.5814 0.6236 0.5227
vn -0.7190 -0.2895 -0.6318
vn -0.6770 -0.4594 -0.5750
vn -0.5846 -0.6191 -0.5244
vn -0.7684 -0.6191 -0.1622
vn -0.8638 -0.4594 -0.2070
vn -0.9344 -0.2895 -0.2074
vn 0.7651 0.6236 0.1607
vn 0.8691 0.4481 0.2095
vn 0.9409 0.2661 0.2097
vn 0.6285 0.7669 0.1298
vn -0.6812 -0.7147 -0.1589
vn 0.5835 -0.1461 -0.7989
vn -0.5674 0.2376 0.7884
vn -0.6712 0.5647 0.4801
vn -0.6391 0.4948 0.5889
vn -0.6296 0.2998 0.7167
vn 0.6609 -0.5995 -0.4515
vn 0.6328 -0.5279 -0.5665
vn 0.6490 -0.3047 -0.6972
vn 0.2450 -0.2549 -0.9354
vn 0.2485 -0.5048 -0.8267
vn 0.2335 -0.6274 -0.7429
vn -0.2645 0.3067 0.9143
vn -0.2500 0.5221 0.8154
vn -0.2433 0.6112 0.7532
vn -0.2884 0.2208 0.9317
vn 0.2938 -0.1131 -0.9491
s off
f 19/1/1 21/2/1 12/3/1 4/4/1 8/5/1
f 16/6/2 20/7/2 12/8/2 2/9/2 7/10/2
f 13/11/3 14/12/3 5/13/3 1/14/3
f 14/12/4 15/15/4 6/16/4 5/13/4
f 15/15/5 16/6/5 7/10/5 6/16/5
f 11/17/6 17/18/6 10/19/6 3/20/6
f 17/18/7 18/21/7 9/22/7 10/19/7
f 18/21/8 19/1/8 8/5/8 9/22/8
f 6/23/9 7/24/9 19/1/9 18/21/9
f 5/25/10 6/23/10 18/21/10 17/18/10
f 1/26/11 5/25/11 17/18/11 11/17/11
f 9/27/12 8/28/12 16/6/12 15/15/12
f 10/29/13 9/27/13 15/15/13 14/12/13
f 3/30/14 10/29/14 14/12/14 13/11/14
f 8/28/15 4/31/15 12/8/15 20/7/15 16/6/15
f 7/24/16 2/32/16 12/3/16 21/2/16 19/1/16
f 40/33/17 42/34/17 33/35/17 25/36/17 29/37/17
f 37/38/18 41/39/18 33/40/18 23/41/18 28/42/18
f 34/43/19 35/44/19 26/45/19 22/46/19
f 35/44/20 36/47/20 27/48/20 26/45/20
f 36/47/21 37/38/21 28/42/21 27/48/21
f 32/49/22 38/50/22 31/51/22 24/52/22
f 38/50/23 39/53/23 30/54/23 31/51/23
f 39/53/24 40/33/24 29/37/24 30/54/24
f 27/55/25 28/56/25 40/33/25 39/53/25
f 26/57/26 27/55/26 39/53/26 38/50/26
f 22/58/27 26/57/27 38/50/27 32/49/27
f 30/59/28 29/60/28 37/38/28 36/47/28
f 31/61/29 30/59/29 36/47/29 35/44/29
f 24/62/30 31/61/30 35/44/30 34/43/30
f 29/60/31 25/63/31 33/40/31 41/39/31 37/38/31
f 28/56/32 23/64/32 33/35/32 42/34/32 40/33/32
f 61/65/33 63/66/33 54/67/33 46/68/33 50/69/33
f 58/70/34 62/71/34 54/72/34 44/73/34 49/74/34
f 55/75/35 56/76/35 47/77/35 43/78/35
f 56/76/36 57/79/36 48/80/36 47/77/36
f 57/79/37 58/70/37 49/74/37 48/80/37
f 53/81/38 59/82/38 52/83/38 45/84/38
f 59/82/39 60/85/39 51/86/39 52/83/39
f 60/85/40 61/65/40 50/69/40 51/86/40
f 48/87/41 49/88/41 61/65/41 60/85/41
f 47/89/42 48/87/42 60/85/42 59/82/42
f 43/90/43 47/89/43 59/82/43 53/81/43
f 51/91/44 50/92/44 58/70/44 57/79/44
f 52/93/45 51/91/45 57/79/45 56/76/45
f 45/94/46 52/93/46 56/76/46 55/75/46
f 50/92/47 46/95/47 54/72/47 62/71/47 58/70/47
f 49/88/48 44/96/48 54/67/48 63/66/48 61/65/48
f 82/97/49 84/98/49 75/99/49 67/100/49 71/101/49
f 79/102/50 83/103/50 75/104/50 65/105/50 70/106/50
f 76/107/51 77/108/51 68/109/51 64/110/51
f 77/108/52 78/111/52 69/112/52 68/109/52
f 78/111/53 79/102/53 70/106/53 69/112/53
f 74/113/54 80/114/54 73/115/54 66/116/54
f 80/114/55 81/117/55 72/118/55 73/115/55
f 81/117/56 82/97/56 71/101/56 72/118/56
f 69/119/57 70/120/57 82/97/57 81/117/57
f 68/121/58 69/119/58 81/117/58 80/114/58
f 64/122/59 68/121/59 80/114/59 74/113/59
f 72/123/60 71/124/60 79/102/60 78/111/60
f 73/125/61 72/123/61 78/111/61 77/108/61
f 66/126/62 73/125/62 77/108/62 76/107/62
f 71/124/63 67/127/63 75/104/63 83/103/63 79/102/63
f 70/120/64 65/128/64 75/99/64 84/98/64 82/97/64
f 103/129/65 105/130/65 96/131/65 88/132/65 92/133/65
f 100/134/66 104/135/66 96/136/66 86/137/66 91/138/66
f 97/139/67 98/140/67 89/141/67 85/142/67
f 98/140/68 99/143/68 90/144/68 89/141/68
f 99/143/69 100/134/69 91/138/69 90/144/69
f 95/145/70 101/146/70 94/147/70 87/148/70
f 101/146/71 102/149/71 93/150/71 94/147/71
f 102/149/72 103/129/72 92/133/72 93/150/72
f 90/151/73 91/152/73 103/129/73 102/149/73
f 89/153/74 90/151/74 102/149/74 101/146/74
f 85/154/75 89/153/75 101/146/75 95/145/75
f 93/155/76 92/156/76 100/134/76 99/143/76
f 94/157/77 93/155/77 99/143/77 98/140/77
f 87/158/78 94/157/78 98/140/78 97/139/78
f 92/156/79 88/159/79 96/136/79 104/135/79 100/134/79
f 91/152/80 86/160/80 96/131/80 105/130/80 103/129/80
l 2 20
l 4 20
l 4 21
l 2 21
l 23 41
l 25 41
l 25 42
l 23 42
l 44 62
l 46 62
l 46 63
l 44 63
l 65 83
l 67 83
l 67 84
l 65 84
l 86 104
l 88 104
l 88 105
l 86 105
